# xmcd
#
# Track frame offsets: 
#        150
#        15265
#        45697
#        74765
#        117855
#        157985
#        176132
#        205887
#        265170
#
# Disc length: 4114 seconds
#
# Revision: 0
# Processed by: cddbd v1.5.2PL0 Copyright (c) Steve Scherf et al.
# Submitted via: ExactAudioCopy v0.95b3
#
DISCID=78101009
DTITLE=Led Zeppelin  - THE LAST - Disc 1
DYEAR=1900
DGENRE=
TTITLE0=Train Kept A-Rollin'
TTITLE1=Nobody's Fault But Mine
TTITLE2=Black Dog
TTITLE3=In The Evening
TTITLE4=The Rain Song
TTITLE5=Hot Dog
TTITLE6=All My Love
TTITLE7=Trampled Underfoot
TTITLE8=Since I've Been Loving You
EXTD=
EXTT0=
EXTT1=
EXTT2=
EXTT3=
EXTT4=
EXTT5=
EXTT6=
EXTT7=
EXTT8=
PLAYORDER=
